<svg xmlns="http://www.w3.org/2000/svg" version="1.1" xmlns:xlink="http://www.w3.org/1999/xlink" width="512" height="512" x="0" y="0" viewBox="0 0 64 64" style="enable-background:new 0 0 512 512" xml:space="preserve" class=""><g><switch><g><path d="M16.553 3.895a.999.999 0 0 0 1.342-.447L18.618 2h26.764l.724 1.447a.998.998 0 0 0 1.341.448 1 1 0 0 0 .447-1.342l-1-2A.998.998 0 0 0 46 0H18c-.379 0-.725.214-.895.553l-1 2a1.001 1.001 0 0 0 .448 1.342zM61 58H3c-1.654 0-3 1.346-3 3v2a1 1 0 0 0 1 1h62a1 1 0 0 0 1-1v-2c0-1.654-1.346-3-3-3zm1 4H2v-1c0-.551.449-1 1-1h58c.551 0 1 .449 1 1zM39 56a1 1 0 0 0 1-1V41a1 1 0 0 0-1-1H25a1 1 0 0 0-1 1v14a1 1 0 0 0 2 0V42h5v13a1 1 0 0 0 2 0V42h5v13a1 1 0 0 0 1 1z" fill="#000000" opacity="1" data-original="#000000" class=""/><path d="M12 12h2v43a1 1 0 0 0 2 0V12h32v43a1 1 0 0 0 2 0V12h2a1 1 0 0 0 1-1V7a1 1 0 0 0-1-1H12a1 1 0 0 0-1 1v4a1 1 0 0 0 1 1zm1-4h38v2H13z" fill="#000000" opacity="1" data-original="#000000" class=""/><path d="M1 25h1v30a1 1 0 0 0 2 0V25h7a1 1 0 0 0 0-2H2v-2h9a1 1 0 0 0 0-2H1a1 1 0 0 0-1 1v4a1 1 0 0 0 1 1zM63 19H53a1 1 0 0 0 0 2h9v2h-9a1 1 0 0 0 0 2h7v30a1 1 0 0 0 2 0V25h1a1 1 0 0 0 1-1v-4a1 1 0 0 0-1-1zM19 24h6a1 1 0 0 0 1-1v-8a1 1 0 0 0-1-1h-6a1 1 0 0 0-1 1v8a1 1 0 0 0 1 1zm1-8h4v6h-4zM29 24h6a1 1 0 0 0 1-1v-8a1 1 0 0 0-1-1h-6a1 1 0 0 0-1 1v8a1 1 0 0 0 1 1zm1-8h4v6h-4zM46 15a1 1 0 0 0-1-1h-6a1 1 0 0 0-1 1v8a1 1 0 0 0 1 1h6a1 1 0 0 0 1-1zm-2 7h-4v-6h4zM18 35a1 1 0 0 0 1 1h6a1 1 0 0 0 1-1v-8a1 1 0 0 0-1-1h-6a1 1 0 0 0-1 1zm2-7h4v6h-4zM28 35a1 1 0 0 0 1 1h6a1 1 0 0 0 1-1v-8a1 1 0 0 0-1-1h-6a1 1 0 0 0-1 1zm2-7h4v6h-4zM46 35v-8a1 1 0 0 0-1-1h-6a1 1 0 0 0-1 1v8a1 1 0 0 0 1 1h6a1 1 0 0 0 1-1zm-2-1h-4v-6h4z" fill="#000000" opacity="1" data-original="#000000" class=""/><path d="M11 31a1 1 0 0 0 0-2H7a1 1 0 0 0-1 1v4a1 1 0 0 0 1 1h4a1 1 0 0 0 0-2H8v-2zM11 41a1 1 0 0 0 0-2H7a1 1 0 0 0-1 1v4a1 1 0 0 0 1 1h4a1 1 0 0 0 0-2H8v-2zM58 30a1 1 0 0 0-1-1h-4a1 1 0 0 0 0 2h3v2h-3a1 1 0 0 0 0 2h4a1 1 0 0 0 1-1zM53 43a1 1 0 0 0 0 2h4a1 1 0 0 0 1-1v-4a1 1 0 0 0-1-1h-4a1 1 0 0 0 0 2h3v2z" fill="#000000" opacity="1" data-original="#000000" class=""/></g></switch></g></svg>