<!-- icon666.com - MILLIONS vector ICONS FREE --><svg version="1.1" id="Capa_1" xmlns="http://www.w3.org/2000/svg" xmlns:xlink="http://www.w3.org/1999/xlink" x="0px" y="0px" viewBox="0 0 508.022 508.022" style="enable-background:new 0 0 508.022 508.022;" xml:space="preserve"><g><g><path d="M407.859,2.922c-3.5-2.7-8-3.6-12.3-2.4l-104.5,28.1v-14.5c0-7.8-6.4-14.1-14.2-14.1c-7.8,0-14.1,6.3-14.1,14.1v37.8 h-69.1c-54.6,0-99,44.4-99,99v244.2c0,7.8,6.3,14.1,14.1,14.1c7.8,0,14.1-6.3,14.1-14.1v-244.2c0-39,31.7-70.8,70.8-70.8h69.1 v51.3c-55.1,7-97.9,54-97.9,111v251.5c0,7.8,6.3,14.1,14.1,14.1h195.8c7.8,0,14.1-6.3,14.1-14.1v-251.5c0-57-42.8-104-97.9-111 v-28l104.6,28.2c1.2,0.3,8,0.9,12.3-2.4c3.5-2.7,5.5-6.8,5.5-11.2v-103.9C413.459,9.722,411.359,5.621,407.859,2.922z M360.659,242.421v237.4h-167.5v-237.4c0-46.2,37.6-83.8,83.8-83.8C323.059,158.621,360.659,196.222,360.659,242.421z M385.259,99.522h-0.1l-94.1-25.4v-16.2l94.2-25.3V99.522z"></path></g></g></svg>