<!-- icon666.com - MILLIONS vector ICONS FREE --><svg viewBox="0 0 480 480" xmlns="http://www.w3.org/2000/svg"><path d="m184 184h-10.398438l-29.601562-81.414062v-78.585938c0-13.253906-10.746094-24-24-24h-32c-13.253906 0-24 10.746094-24 24v78.585938l-29.601562 81.414062h-10.398438c-13.253906 0-24 10.746094-24 24v200c0 13.253906 10.746094 24 24 24h8v24c0 13.253906 10.746094 24 24 24h96c13.253906 0 24-10.746094 24-24v-24h8c13.253906 0 24-10.746094 24-24v-200c0-13.253906-10.746094-24-24-24zm-104-120h48v32h-48zm0-40c0-4.417969 3.582031-8 8-8h32c4.417969 0 8 3.582031 8 8v24h-48zm-2.398438 88h52.796876l26.175781 72h-105.148438zm82.398438 344c0 4.417969-3.582031 8-8 8h-96c-4.417969 0-8-3.582031-8-8v-24h112zm32-48c0 4.417969-3.582031 8-8 8h-160c-4.417969 0-8-3.582031-8-8v-200c0-4.417969 3.582031-8 8-8h160c4.417969 0 8 3.582031 8 8zm0 0"></path><path d="m168 216h-64c-4.417969 0-8 3.582031-8 8s3.582031 8 8 8h56v88c0 4.417969 3.582031 8 8 8s8-3.582031 8-8v-96c0-4.417969-3.582031-8-8-8zm0 0"></path><path d="m168 344c-4.417969 0-8 3.582031-8 8v16c0 4.417969 3.582031 8 8 8s8-3.582031 8-8v-16c0-4.417969-3.582031-8-8-8zm0 0"></path><path d="m360 232h56v72c0 4.417969 3.582031 8 8 8s8-3.582031 8-8v-80c0-4.417969-3.582031-8-8-8h-64c-4.417969 0-8 3.582031-8 8s3.582031 8 8 8zm0 0"></path><path d="m424 328c-4.417969 0-8 3.582031-8 8v16c0 4.417969 3.582031 8 8 8s8-3.582031 8-8v-16c0-4.417969-3.582031-8-8-8zm0 0"></path><path d="m462.238281 376.929688c1.15625-2.835938 1.753907-5.867188 1.761719-8.929688v-160c-.050781-11.917969-8.832031-21.992188-20.632812-23.664062 8.039062-13.164063 5.40625-30.207032-6.222657-40.335938 6.898438-6.066406 10.855469-14.8125 10.855469-24s-3.957031-17.933594-10.855469-24c9.976563-8.800781 13.46875-22.855469 8.769531-35.304688-4.699218-12.445312-16.609374-20.6875-29.914062-20.695312h-128c-13.304688.007812-25.214844 8.25-29.914062 20.695312-4.699219 12.449219-1.207032 26.503907 8.769531 35.304688-6.898438 6.066406-10.855469 14.8125-10.855469 24s3.957031 17.933594 10.855469 24c-11.628907 10.128906-14.261719 27.171875-6.222657 40.335938-11.800781 1.671874-20.582031 11.746093-20.632812 23.664062v160c.007812 3.0625.605469 6.09375 1.761719 8.929688-10.445313 2.808593-17.714844 12.257812-17.761719 23.070312v56c0 13.253906 10.746094 24 24 24h208c13.253906 0 24-10.746094 24-24v-56c-.046875-10.8125-7.316406-20.261719-17.761719-23.070312zm-174.238281-240.929688c-8.835938 0-16-7.164062-16-16s7.164062-16 16-16c4.417969 0 8-3.582031 8-8s-3.582031-8-8-8c-8.835938 0-16-7.164062-16-16s7.164062-16 16-16h128c8.835938 0 16 7.164062 16 16s-7.164062 16-16 16c-4.417969 0-8 3.582031-8 8s3.582031 8 8 8c8.835938 0 16 7.164062 16 16s-7.164062 16-16 16c-4.417969 0-8 3.582031-8 8s3.582031 8 8 8c8.835938 0 16 7.164062 16 16s-7.164062 16-16 16h-128c-8.835938 0-16-7.164062-16-16s7.164062-16 16-16c4.417969 0 8-3.582031 8-8s-3.582031-8-8-8zm-32 72c0-4.417969 3.582031-8 8-8h176c4.417969 0 8 3.582031 8 8v160c0 4.417969-3.582031 8-8 8h-16c-4.417969 0-8 3.582031-8 8v40h-32v-40c0-4.417969-3.582031-8-8-8h-48c-4.417969 0-8 3.582031-8 8v40h-32v-40c0-4.417969-3.582031-8-8-8h-16c-4.417969 0-8-3.582031-8-8zm208 248c0 4.417969-3.582031 8-8 8h-208c-4.417969 0-8-3.582031-8-8v-56c0-4.417969 3.582031-8 8-8h24v40c0 4.417969 3.582031 8 8 8h48c4.417969 0 8-3.582031 8-8v-40h32v40c0 4.417969 3.582031 8 8 8h48c4.417969 0 8-3.582031 8-8v-40h24c4.417969 0 8 3.582031 8 8zm0 0"></path><path d="m320 104h64c4.417969 0 8-3.582031 8-8s-3.582031-8-8-8h-64c-4.417969 0-8 3.582031-8 8s3.582031 8 8 8zm0 0"></path><path d="m320 152h64c4.417969 0 8-3.582031 8-8s-3.582031-8-8-8h-64c-4.417969 0-8 3.582031-8 8s3.582031 8 8 8zm0 0"></path></svg>