<!-- icon666.com - MILLIONS vector ICONS FREE --><svg xmlns="http://www.w3.org/2000/svg" viewBox="0 0 32 32"><g id="Layer_15" data-name="Layer 15"><path d="M25.38,2H6.63A4.63,4.63,0,0,0,2,6.63V25.38A4.63,4.63,0,0,0,6.63,30H25.38A4.63,4.63,0,0,0,30,25.38V6.63A4.63,4.63,0,0,0,25.38,2ZM6.63,4H25.38A2.63,2.63,0,0,1,28,6.63v7.5l-1.27-1.6-.1-.11a2.13,2.13,0,0,0-3.2.33L16.14,23.06a.12.12,0,0,1-.11.05c-.07,0-.1,0-.11-.06l-4.05-6.21a2.4,2.4,0,0,0-3.65-.44l-.11.13L4,22V6.63A2.63,2.63,0,0,1,6.63,4ZM25.38,28H6.63A2.63,2.63,0,0,1,4,25.38v0l5.64-7.5a.4.4,0,0,1,.56.11l4.05,6.21a2.13,2.13,0,0,0,1.75,1h0a2.13,2.13,0,0,0,1.74-.9l7.29-10.33a.12.12,0,0,1,.09-.05h.07L28,17.35v8A2.63,2.63,0,0,1,25.38,28Z"></path><path d="M16,17a3.5,3.5,0,1,0-3.5-3.5A3.5,3.5,0,0,0,16,17Zm0-5a1.5,1.5,0,1,1-1.5,1.5A1.5,1.5,0,0,1,16,12Z"></path></g></svg>