<svg width="32" height="33" viewBox="0 0 32 33" fill="none" xmlns="http://www.w3.org/2000/svg">
<path d="M12.6098 12.5359C15.0182 15.0797 17.3639 17.5583 19.7652 20.0946C20.173 19.6423 20.6031 19.144 21.0565 18.6693C22.8901 16.751 25.2955 16.6259 27.2141 18.4287C28.308 19.4573 29.3534 20.5565 30.3238 21.7156C31.9551 23.6628 31.8731 26.2012 30.1801 28.0767C29.3311 29.0177 28.4578 29.9362 27.5663 30.8322C25.7509 32.6585 23.5236 33.0627 21.1364 32.805C18.219 32.4896 15.6122 31.2449 13.1755 29.6154C8.94657 26.785 5.52418 23.1025 3.02064 18.5025C1.75774 16.1821 0.827761 13.726 0.563644 11.0464C0.291432 8.27489 0.861155 5.77494 2.87998 3.79572C3.60858 3.08145 4.2805 2.30195 4.99595 1.57164C6.78708 -0.257884 9.18235 -0.378711 11.0474 1.35778C12.1706 2.40353 13.2382 3.53268 14.2249 4.72171C15.8652 6.69986 15.7377 9.22333 13.9931 11.1095C13.5337 11.6057 13.053 12.0804 12.6098 12.5359ZM22.2668 29.6656C23.5266 29.6817 24.6721 29.363 25.592 28.3932C26.3924 27.5506 27.1959 26.7112 27.9862 25.859C28.6106 25.1865 28.6066 24.4123 27.9792 23.7408C27.1028 22.802 26.2204 21.8696 25.3329 20.9436C24.6013 20.1812 23.9142 20.1855 23.1805 20.9511C22.4135 21.753 21.6576 22.5668 20.8905 23.3687C20.085 24.2113 19.2522 24.2263 18.4588 23.3901C15.4625 20.2325 12.4701 17.0707 9.48188 13.9046C8.68447 13.0599 8.6956 12.1895 9.49504 11.3362C10.254 10.5257 11.0221 9.72482 11.783 8.91645C12.5046 8.14872 12.5116 7.40023 11.8023 6.64532C10.9472 5.7343 10.089 4.82756 9.22687 3.92403C8.49524 3.15843 7.80105 3.15416 7.07245 3.91227C6.31552 4.70032 5.57781 5.50762 4.81582 6.28926C3.96782 7.15857 3.60554 8.23533 3.55798 9.45323C3.47095 11.672 4.09026 13.7239 5.02934 15.6529C7.86278 21.4708 12.0917 25.7927 17.7282 28.5279C19.155 29.2197 20.6729 29.6517 22.2668 29.6667V29.6656Z" fill="#0D8643"/>
</svg>
