<svg xmlns="http://www.w3.org/2000/svg" version="1.1" xmlns:xlink="http://www.w3.org/1999/xlink" width="512" height="512" x="0" y="0" viewBox="0 0 24 24" style="enable-background:new 0 0 512 512" xml:space="preserve" class="" id="SVG 2"><g><clipPath id="a"><path d="M0 0h24v24H0z" fill="#070707" opacity="1" data-original="#000000" class=""></path></clipPath><g fill="#000" clip-path="url(#a)"><path d="M12 2C8.13 2 5 5.13 5 9c0 5.25 7 13 7 13s7-7.75 7-13c0-3.87-3.13-7-7-7zM7 9c0-2.76 2.24-5 5-5s5 2.24 5 5c0 2.88-2.88 7.19-5 9.88C9.92 16.21 7 11.85 7 9z" fill="#070707" opacity="1" data-original="#000000" class=""></path><path d="M12 11.5a2.5 2.5 0 1 0 0-5 2.5 2.5 0 0 0 0 5z" fill="#070707" opacity="1" data-original="#000000" class=""></path></g></g></svg>