<!-- icon666.com - MILLIONS vector ICONS FREE --><svg id="Layer_1" viewBox="0 0 512 512" xmlns="http://www.w3.org/2000/svg" data-name="Layer 1"><path d="m481.281 249.183h22.719a7.985 7.985 0 0 0 6.557-12.55l-44.425-63.733a8.033 8.033 0 0 0 -13.12 0l-44.432 63.733a7.985 7.985 0 0 0 6.562 12.55h25.811a64.836 64.836 0 0 1 -32.68 45.008 8 8 0 0 0 3.85 15 7.528 7.528 0 0 0 2.028-.283 98.66 98.66 0 0 0 67.13-59.727zm-377.329-4.293a7.974 7.974 0 0 0 -.533-8.257l-44.428-63.733a8.037 8.037 0 0 0 -13.125 0l-44.427 63.733a7.986 7.986 0 0 0 6.561 12.55h22.72a98.67 98.67 0 0 0 67.127 59.727 7.6 7.6 0 0 0 2.033.283 8 8 0 0 0 3.85-15 64.834 64.834 0 0 1 -32.685-45.008h25.811a8 8 0 0 0 7.1-4.293zm367.1-159.839-8.794 8.539 8.794 8.539a8.018 8.018 0 0 1 -11.163 11.512l-9.1-8.87-9.11 8.87a8.076 8.076 0 0 1 -11.309-.189 8.018 8.018 0 0 1 .151-11.323l8.789-8.539-8.789-8.539a8 8 0 1 1 11.159-11.464l9.11 8.822 9.1-8.822a8 8 0 1 1 11.163 11.464zm-20.262 53.736a45.2 45.2 0 1 0 -45.22-45.2 45.229 45.229 0 0 0 45.22 45.2zm0-106.387a61.214 61.214 0 1 0 61.21 61.19 61.275 61.275 0 0 0 -61.21-61.19zm-414.114 63.219a8 8 0 1 1 12.946-9.389l5.709 7.832 22.8-18.683a7.994 7.994 0 0 1 10.144 12.361l-29.364 24.06a8.027 8.027 0 0 1 -5.072 1.84 7.328 7.328 0 0 1 -1.019-.095 7.947 7.947 0 0 1 -5.453-3.208zm24.542-47.225a45.2 45.2 0 1 0 45.216 45.2 45.267 45.267 0 0 0 -45.216-45.2zm0 106.433a61.214 61.214 0 1 0 -61.218-61.237 61.287 61.287 0 0 0 61.218 61.237zm10.282 239.381a49.02 49.02 0 0 1 33.935-47.178l67.165-22.363v66.191a7.991 7.991 0 0 0 4.326 7.124 7.8 7.8 0 0 0 3.67.9 8.241 8.241 0 0 0 4.633-1.462l30.237-21.52 5.459 31.232-12.677 72.468h-70.507v-44.489a8 8 0 1 0 -16 0v44.489h-50.241zm136.314-81.288-19.22 6.416v56.048l53.589-38.073zm47.343-29.3a92.585 92.585 0 0 1 -38.922-8.587v24.25c.052.047.109.047.156.094l39.609 28.123 39.02-27.693a4.688 4.688 0 0 1 .751-.472v-25.1a92.81 92.81 0 0 1 -40.616 9.389zm-73.305-116.904c.7.047 1.387.047 2.081.047 47.465 0 81.83-17.126 102.225-50.858 4.552-4.387 8.525-6.227 11.794-5.378 4.128 1.038 15.059 8.02 27.43 50.292.079.283.179.566.287.849a76.442 76.442 0 0 1 -117.119 90.11c-25.731-19.768-36.266-54.114-26.7-85.062zm-33.142 23.447a19.92 19.92 0 0 1 15.611-19.39 94.911 94.911 0 0 0 .16 38.828 19.874 19.874 0 0 1 -15.771-19.438zm196.99 19.485a92.38 92.38 0 0 0 -.411-39.016 19.857 19.857 0 0 1 .411 39.016zm-22.262 109.688a5.927 5.927 0 0 0 -.029.614v55.434l-53.594-38.073 34.374-24.391zm117.062 74.872v85.392h-50.24v-44.489a8 8 0 1 0 -16 0v44.489h-70.51l-12.672-72.465 5.449-31.232 30.256 21.513a8.216 8.216 0 0 0 4.628 1.462 7.827 7.827 0 0 0 3.67-.9 7.986 7.986 0 0 0 4.331-7.124v-66.187l67.158 22.363a49.021 49.021 0 0 1 33.93 47.178zm-203.572 14.292a8.786 8.786 0 0 0 .1-.991h37.941a8.774 8.774 0 0 0 .1.991l12.441 71.1h-63.019zm44.819-40.9-4.19 23.919h-43.116l-3.769-21.56a8.033 8.033 0 0 0 -1.672-3.633l27-19.2 26.292 18.683a8.111 8.111 0 0 0 -.547 1.792zm-218.247 128.04a8.04 8.04 0 0 1 -8-8.02v-93.412c0-28.779 17.617-53.264 44.876-62.322l99.866-33.308v-33.072c-.481-.33-.972-.707-1.443-1.038a92.831 92.831 0 0 1 -29.274-38.5 6.228 6.228 0 0 1 -.949.048 35.832 35.832 0 0 1 -26.9-59.539c-8.894-21.136-11.772-41.894-8.516-61.756a7.339 7.339 0 0 1 .321-1.274 128.527 128.527 0 0 1 235.139-18.915c10.7 20.145 9.03 30.949 6.251 48.876-.3 1.934-.623 4.01-.939 6.18-1.1 7.455-3.7 20.617-5.119 27.033a35.834 35.834 0 0 1 -27.023 59.4 7.047 7.047 0 0 1 -1.01-.048 92.39 92.39 0 0 1 -29.207 38.45 7.858 7.858 0 0 1 .2 1.746v32.411l99.861 33.308c27.26 9.058 44.866 33.543 44.866 62.322v93.41a8.033 8.033 0 0 1 -8 8.02z" fill-rule="evenodd"></path></svg>