<svg xmlns="http://www.w3.org/2000/svg" version="1.1" xmlns:xlink="http://www.w3.org/1999/xlink" width="512" height="512" x="0" y="0" viewBox="0 0 24 24" style="enable-background:new 0 0 512 512" xml:space="preserve" class="" id="SVG 15"><g><path d="M17 0H7a5.006 5.006 0 0 0-5 5v9a5.008 5.008 0 0 0 4.266 4.946l-2.123 3.539a1 1 0 0 0 1.714 1.03L8.566 19h6.868l2.709 4.515a1 1 0 0 0 1.714-1.03l-2.123-3.539A5.008 5.008 0 0 0 22 14V5a5.006 5.006 0 0 0-5-5Zm-4 11V6h7v5Zm-9 0V6h7v5Zm3-9h10a3 3 0 0 1 2.828 2H4.172A3 3 0 0 1 7 2Zm10 15H7a3 3 0 0 1-3-3v-1h2v1a1 1 0 0 0 2 0v-1h8v1a1 1 0 0 0 2 0v-1h2v1a3 3 0 0 1-3 3Z" fill="#000000" opacity="1" data-original="#000000" class=""></path></g></svg>