<!-- icon666.com - MILLIONS vector ICONS FREE --><svg id="Layer_5" enable-background="new 0 0 64 64" viewBox="0 0 64 64" xmlns="http://www.w3.org/2000/svg"><g><path d="m49 39h-6v4h-4v6h4v4h6v-4h4v-6h-4zm2 6v2h-4v4h-2v-4h-4v-2h4v-4h2v4z"></path><path d="m46 35c-6.065 0-11 4.935-11 11s4.935 11 11 11 11-4.935 11-11-4.935-11-11-11zm0 20c-4.962 0-9-4.037-9-9s4.038-9 9-9 9 4.037 9 9-4.038 9-9 9z"></path><path d="m7 55h10v-14h-10zm2-6h2v4h-2zm4 4v-4h2v4zm2-6h-2v-4h2zm-4-4v4h-2v-4z"></path><path d="m4 15h4c.551 0 1 .448 1 1v1h2v-1c0-1.654-1.346-3-3-3h-4c-.551 0-1-.448-1-1s.449-1 1-1h7v-2h-7c-1.654 0-3 1.346-3 3s1.346 3 3 3z"></path><path d="m16 15h4c.551 0 1 .448 1 1v1h2v-1c0-1.654-1.346-3-3-3h-4c-.551 0-1-.448-1-1s.449-1 1-1h9v-2h-9c-1.654 0-3 1.346-3 3s1.346 3 3 3z"></path><path d="m63 49.729v-7.459l-2.734-.876c-.248-.772-.556-1.519-.919-2.229l1.312-2.549-5.274-5.274-2.385 1.226v-29.103l-.445-.297c-.133-.089-3.335-2.168-10.555-2.168s-10.422 2.079-10.555 2.168l-.445.297v29.535h-4.069l-1-14h-7.862l-1 14h-2.137l-1-14h-7.863l-1 14h-2.069c-1.103 0-2 .897-2 2v2c0 1.103.897 2 2 2v18c-1.103 0-2 .897-2 2v2c0 1.103.897 2 2 2h39.271 3.729 3.729l.876-2.734c.774-.249 1.52-.557 2.229-.919l2.548 1.311 5.274-5.273-1.312-2.549c.363-.711.671-1.457.919-2.229zm-12-36.729h-18v-2h18zm0 2v2h-18v-2zm0 4v2h-18v-2zm0 4v2h-18v-2zm0 4v4.879c-.132-.047-.26-.101-.394-.144l-.877-2.735h-5.729-1.729-9.271v-2zm-9-24c5.089 0 7.965 1.102 9 1.596v4.404h-18v-4.403c1.04-.497 3.915-1.597 9-1.597zm-9 28h8.629l-.235.734c-.774.249-1.52.557-2.229.919l-2.549-1.312-1.658 1.659h-1.958zm-13.069-10h4.138l.857 12h-5.852zm-12 0h4.138l.857 12h-5.852zm-4.931 14h1.926 10.148 1.852 10.148 5.884l-1.616 1.616.197.384h-28.539zm2 4h27.568l.085.165c-.363.711-.671 1.457-.919 2.229l-.734.236v-.63h-10v14h10v-4.63l.734.235c.248.773.556 1.52.919 2.229l-1.312 2.549 1.617 1.617h-27.958zm24 8h-2v-4h2zm-4 0h-2v-4h2zm-2 2h2v4h-2zm4 0h2v4h-2zm-24 12v-2h31.959l1.658 1.657 2.548-1.311c.709.362 1.456.67 2.229.919l.235.735zm55.644-11.976-.146.517c-.278.986-.667 1.927-1.153 2.797l-.262.469 1.129 2.194-3.211 3.211-2.195-1.129-.468.263c-.867.484-1.807.872-2.796 1.152l-.517.146-.754 2.356h-2.271-2.271l-.755-2.356-.517-.146c-.989-.28-1.929-.668-2.796-1.152l-.468-.263-2.195 1.129-3.211-3.211 1.129-2.194-.262-.469c-.486-.868-.875-1.81-1.153-2.797l-.146-.517-2.355-.754v-4.54l2.356-.754.146-.517c.278-.986.667-1.927 1.153-2.797l.262-.469-1.129-2.194 3.211-3.212 2.195 1.13.468-.263c.867-.484 1.807-.872 2.796-1.152l.517-.146.754-2.356h.271 4.271l.755 2.356.517.146c.989.28 1.929.668 2.796 1.152l.468.263 2.195-1.13 3.211 3.212-1.129 2.194.262.469c.487.87.875 1.811 1.153 2.797l.146.517 2.355.753v4.541z"></path></g></svg>