<!-- icon666.com - MILLIONS vector ICONS FREE --><svg version="1.1" id="Capa_1" xmlns="http://www.w3.org/2000/svg" xmlns:xlink="http://www.w3.org/1999/xlink" x="0px" y="0px" viewBox="0 0 512 512" style="enable-background:new 0 0 512 512;" xml:space="preserve"><g><g><path d="M0,53.5v405h512v-405H0z M30,83.5h211v45H30V83.5z M482,428.5H30v-270h452V428.5z M482,128.5H271v-45h211V128.5z"></path></g></g><g><g><rect x="59.5" y="248.5" width="91.5" height="30"></rect></g></g><g><g><rect x="59.5" y="188.5" width="91.5" height="30"></rect></g></g><g><g><rect x="181" y="188.5" width="30" height="30"></rect></g></g><g><g><rect x="181" y="248.5" width="30" height="30"></rect></g></g><g><g><rect x="59.5" y="368.5" width="91.5" height="30"></rect></g></g><g><g><rect x="59.5" y="308.5" width="91.5" height="30"></rect></g></g><g><g><rect x="181" y="308.5" width="30" height="30"></rect></g></g><g><g><rect x="181" y="368.5" width="30" height="30"></rect></g></g><g><g><rect x="301" y="248.5" width="91.5" height="30"></rect></g></g><g><g><rect x="301" y="188.5" width="91.5" height="30"></rect></g></g><g><g><rect x="422.5" y="188.5" width="30" height="30"></rect></g></g><g><g><rect x="422.5" y="248.5" width="30" height="30"></rect></g></g><g><g><rect x="301" y="368.5" width="91.5" height="30"></rect></g></g><g><g><rect x="301" y="308.5" width="91.5" height="30"></rect></g></g><g><g><rect x="422.5" y="308.5" width="30" height="30"></rect></g></g><g><g><rect x="422.5" y="368.5" width="30" height="30"></rect></g></g></svg>