<svg width="308" height="311" viewBox="0 0 308 311" fill="none" xmlns="http://www.w3.org/2000/svg">
<path d="M125.143 144.182L20.656 248.669C9.11467 260.209 9.11467 278.923 20.656 290.463C32.1972 302.005 50.9093 302.005 62.4506 290.463L166.937 185.977" stroke="black" stroke-width="22.165" stroke-linecap="round" stroke-linejoin="round"/>
<path d="M230.684 191.362L287.992 248.67C299.534 260.211 299.534 278.924 287.992 290.464C276.452 302.007 257.739 302.007 246.198 290.464L154.457 198.725" stroke="black" stroke-width="22.165" stroke-linecap="round" stroke-linejoin="round"/>
<path d="M76.1061 74.6921L44.7601 85.1408L13.4141 32.8975L34.3114 12L86.5549 43.346L76.1061 74.6921ZM76.1061 74.6921L117.927 116.513" stroke="black" stroke-width="22.165" stroke-linecap="round" stroke-linejoin="round"/>
<path d="M125.13 144.185C112.662 112.371 115.099 70.6268 140.804 44.9227C166.508 19.2184 213.944 13.5766 240.066 29.2497L195.135 74.1806L190.959 120.151L236.929 115.975L281.86 71.0443C297.534 97.166 291.892 144.603 266.188 170.307C240.483 196.011 198.74 198.449 166.926 185.979" stroke="black" stroke-width="22.165" stroke-linecap="round" stroke-linejoin="round"/>
</svg>
