<!-- icon666.com - MILLIONS vector ICONS FREE --><svg clip-rule="evenodd" fill-rule="evenodd" image-rendering="optimizeQuality" shape-rendering="geometricPrecision" text-rendering="geometricPrecision" viewBox="0 0 1707 1707" xmlns="http://www.w3.org/2000/svg"><g id="Layer_x0020_1"><g id="_616080936"><g><g><g><path d="m1212 1707h-1096c-14 0-25-12-25-25 0-24 0-50-1-78-3-115-6-246 33-340 57-144 204-290 373-290 4 0 8 1 13 3 126 72 184 72 310 0 5-2 9-3 13-3 169 0 315 147 373 291 37 93 35 221 32 333 0 29-1 57-1 84 0 6-3 12-7 16-5 6-10 9-17 9zm-1071-49h1047c0-19 0-39 2-60 3-108 4-230-29-313-52-128-178-258-322-261-135 75-212 75-347 0-144 4-271 132-322 259-35 86-32 211-29 321-1 18 0 36 0 54z"></path></g><g><path d="m391 1684c-14 0-25-11-25-25v-639c0-14 11-25 25-25s25 11 25 25v639c-2 14-13 25-25 25z"></path></g><g><path d="m939 1684c-14 0-25-11-25-25v-639c0-14 11-25 25-25s25 11 25 25v639c-2 14-11 25-25 25z"></path></g><g><path d="m291 475c-15-2-25-13-24-25 10-172 128-318 293-364 12-4 26 4 30 17 5 12-4 26-16 30-146 41-250 168-258 319-2 13-11 23-25 23zm745 0c-13 0-24-10-24-24-7-150-111-277-256-318-13-4-21-16-17-30 4-13 17-21 30-17 166 46 283 192 292 364 0 13-10 25-25 25 1 0 1 0 0 0z"></path></g><g><path d="m738 473h-2c-14-1-23-12-22-26l28-398h-156l31 398c1 14-9 25-22 26-14 2-25-10-27-22l-32-425c0-6 2-13 7-18 4-5 11-8 18-8h208c7 0 14 3 18 8 5 6 7 12 7 18l-30 425c-4 12-14 22-26 22z"></path></g><g><path d="m1019 595h-710c-47 0-85-39-85-84 0-48 39-85 85-85h710c47 0 85 39 85 85 1 45-38 84-85 84zm-710-122c-21 0-36 17-36 36 0 21 16 36 36 36h710c21 0 36-16 36-36 0-21-16-36-36-36z"></path></g><g><path d="m664 934c-96 0-186-39-253-108-66-68-99-160-95-257 0-14 12-24 25-24 12 0 23 13 23 25-4 84 27 161 84 222 56 60 134 93 216 93 83 0 161-33 218-93 57-59 87-138 83-220 0-14 10-25 24-25 13 0 25 9 25 23 4 96-31 188-98 257-66 69-156 107-252 107z"></path></g><g><path d="m664 1365c-8 0-17-5-21-12l-180-342c-7-12-2-26 10-33s26-1 33 10l159 301 160-301c7-13 21-17 33-10 13 7 17 21 10 33l-182 342c-5 7-14 12-22 12z"></path></g><g><path d="m498 1023c-6 0-12-2-16-6-9-8-11-24-3-35 2-1 35-41 39-98 2-14 13-24 27-22 14 1 23 12 22 26-6 74-49 125-51 128-6 4-12 7-18 7z"></path></g><g><path d="m832 1023c-7 0-14-3-18-9-2-3-46-52-52-126-1-14 9-25 23-26 14-2 25 8 26 22 6 58 40 98 40 98 9 10 9 25-2 35-6 4-12 6-17 6z"></path></g></g><g><path d="m1216 1408c-4 0-7 0-10 0-13-1-23-14-20-26 1-14 13-22 26-21 6 0 12 0 21-1 22-4 40-17 53-35 12-18 16-42 12-62-4-23-17-42-35-55-18-12-41-16-64-12-15 3-29 10-40 21-9 10-25 8-34-2-10-9-9-25 1-34 18-17 40-28 65-34 35-6 71 2 100 21 29 20 49 50 56 85 6 35 0 69-20 100-19 29-50 50-85 55-9-1-19 0-26 0z"></path></g><g><path d="m1213 1480c-14 0-25-11-25-25 0-13 11-25 25-25 11 0 23-1 35-2 40-9 75-32 99-67 23-35 31-76 23-118-8-41-32-78-66-100-35-23-77-32-118-23-27 5-52 16-73 33-9 8-24 7-34-3-9-9-7-25 3-34 27-23 59-38 94-45 53-11 108 0 154 31 46 30 76 77 87 131 11 55 0 109-32 154-30 46-77 77-130 88-15 4-28 5-42 5z"></path></g><g><path d="m1259 1680h-47c-14 0-25-11-25-25s11-25 25-25h25l10-82c1-9 8-18 19-20 36-9 67-21 93-39 8-6 21-6 29 1l65 51 31-30-51-65c-7-9-7-21-2-29 18-27 32-57 39-93 3-10 11-18 21-20l82-10v-43l-82-9c-10-2-18-9-21-20-7-34-21-65-39-93-5-8-5-20 2-29l51-64-31-30-65 51c-8 7-19 7-28 2-27-20-61-32-93-39-11-2-18-11-19-21l-10-82h-43l-9 82c-2 11-10 19-20 21-53 11-82 30-125 59l-7 5c-11 7-26 4-33-7s-4-27 7-34l7-4c40-28 74-50 125-64l10-86c1-12 12-20 23-20h86c13 0 22 9 24 20l9 86c28 7 55 18 78 32l68-54c10-7 24-7 32 2l61 61c8 8 10 22 1 32l-54 68c14 23 25 49 34 77l86 11c12 2 20 13 20 24v86c0 12-9 22-20 24l-86 9c-9 29-18 56-34 78l54 68c9 10 7 23-1 32l-61 61c-8 8-22 10-32 1l-68-54c-23 14-50 25-78 33l-9 86c-2 18-11 28-24 28z"></path></g></g></g></g></svg>